<?xml version="1.0" standalone="no"?><!DOCTYPE svg PUBLIC "-//W3C//DTD SVG 1.1//EN" "http://www.w3.org/Graphics/SVG/1.1/DTD/svg11.dtd"><svg t="1504056965130" class="icon" style="" viewBox="0 0 1024 1024" version="1.1" xmlns="http://www.w3.org/2000/svg" p-id="2704" xmlns:xlink="http://www.w3.org/1999/xlink" width="32" height="32"><defs><style type="text/css"></style></defs><path d="M512 78.7c58.5 0 115.2 11.5 168.6 34 51.6 21.8 97.9 53.1 137.7 92.9 39.8 39.8 71 86.1 92.9 137.7 22.6 53.4 34 110.1 34 168.6s-11.5 115.2-34 168.6c-21.8 51.6-53.1 97.9-92.9 137.7s-86.1 71-137.7 92.9c-53.4 22.6-110.1 34-168.6 34s-115.2-11.5-168.6-34c-51.6-21.8-97.9-53.1-137.7-92.9-39.8-39.8-71-86.1-92.9-137.7-22.6-53.4-34-110.1-34-168.6s11.5-115.2 34-168.6c21.8-51.6 53.1-97.9 92.9-137.7s86.1-71 137.7-92.9c53.4-22.5 110.1-34 168.6-34m0-15c-247.6 0-448.3 200.7-448.3 448.3S264.4 960.3 512 960.3s448.3-200.7 448.3-448.3S759.6 63.7 512 63.7z" p-id="2705" fill="#d43c33"></path><path d="M723.1 365.8c16.5 0 30 13.5 30 30v304.5c0 16.5-13.5 30-30 30H300.9c-16.5 0-30-13.5-30-30V395.8c0-16.5 13.5-30 30-30h422.2m0-15H300.9c-24.9 0-45 20.1-45 45v304.5c0 24.9 20.1 45 45 45H723c24.9 0 45-20.1 45-45V395.8c0.1-24.9-20.1-45-44.9-45z" p-id="2706" fill="#d43c33"></path><path d="M305 365.1c-3.2 0-6.2-2.1-7.2-5.3-1.2-4 1.1-8.1 5-9.3l262.5-78.9c4-1.2 8.1 1.1 9.3 5 1.2 4-1.1 8.1-5 9.3l-262.5 78.9c-0.7 0.2-1.4 0.3-2.1 0.3zM642.5 428.8c15.7 0 28.5 12.8 28.5 28.5v47.2c0 15.7-12.8 28.5-28.5 28.5H380c-15.7 0-28.5-12.8-28.5-28.5v-47.2c0-15.7 12.8-28.5 28.5-28.5h262.5m0-15H380c-24 0-43.5 19.5-43.5 43.5v47.2c0 24 19.5 43.5 43.5 43.5h262.5c24 0 43.5-19.5 43.5-43.5v-47.2c0-24.1-19.5-43.5-43.5-43.5z" p-id="2707" fill="#d43c33"></path><path d="M454 542.7c-4.1 0-7.5-3.4-7.5-7.5v-72c0-4.1 3.4-7.5 7.5-7.5s7.5 3.4 7.5 7.5v72c0 4.2-3.4 7.5-7.5 7.5zM400.5 601.5c21.3 0 38.5 17.3 38.5 38.5s-17.3 38.5-38.5 38.5-38.5-17.3-38.5-38.5 17.2-38.5 38.5-38.5m0-15c-29.6 0-53.5 24-53.5 53.5 0 29.6 24 53.5 53.5 53.5s53.5-24 53.5-53.5-24-53.5-53.5-53.5zM650 632.7c4.1 0 7.5 3.4 7.5 7.5s-3.4 7.5-7.5 7.5-7.5-3.4-7.5-7.5 3.4-7.5 7.5-7.5m0-15c-12.4 0-22.5 10.1-22.5 22.5s10.1 22.5 22.5 22.5 22.5-10.1 22.5-22.5-10.1-22.5-22.5-22.5z" p-id="2708" fill="#d43c33"></path></svg>