<?xml version="1.0" standalone="no"?><!DOCTYPE svg PUBLIC "-//W3C//DTD SVG 1.1//EN" "http://www.w3.org/Graphics/SVG/1.1/DTD/svg11.dtd"><svg t="1508728149695" class="icon" style="" viewBox="0 0 1024 1024" version="1.1" xmlns="http://www.w3.org/2000/svg" p-id="2975" xmlns:xlink="http://www.w3.org/1999/xlink" width="64" height="64"><defs><style type="text/css"></style></defs><path d="M1023.976 512.002C1023.976 229.212 794.817 0 511.973 0 229.231 0 0.024 229.212 0.024 512.002S229.231 1024 511.973 1024c116.089 0 222.354-39.51 308.286-104.56 3.5-4.059 5.804-9.107 5.804-14.872 0-12.52-10.117-22.687-22.637-22.687-6.5 0-12.314 2.559-16.521 6.911l-0.195 0c-76.873 56.589-171.472 90.442-274.237 90.442-256.001 0-463.625-207.629-463.625-463.625 0-256.104 207.628-463.728 463.625-463.728 256.109 0 463.63 207.624 463.63 463.728 0 78.221-18.333 151.785-52.529 216.438l0 0.401c-0.657 2.157-1.354 4.206-1.354 6.51 0 12.569 10.216 22.735 22.687 22.735 9.814 0 17.971-6.265 21.187-14.921l0 0.195C1002.495 676.459 1023.976 596.733 1023.976 512.002L1023.976 512.002zM203.844 685.322c-14.177 0-25.643-11.466-25.643-25.638L178.201 365.526c0-14.177 11.466-25.643 25.643-25.643 14.171 0 25.637 11.466 25.637 25.643l0 294.158C229.481 673.856 218.016 685.322 203.844 685.322zM388.58 685.322c-14.167 0-25.637-11.466-25.637-25.638L362.943 365.526c0-14.177 11.471-25.643 25.637-25.643 14.177 0 25.638 11.466 25.638 25.643l0 294.158C414.218 673.856 402.757 685.322 388.58 685.322zM388.58 538.243 203.844 538.243c-14.177 0-25.643-11.466-25.643-25.638s11.466-25.638 25.643-25.638L388.58 486.967c14.128 0 25.638 11.466 25.638 25.638S402.708 538.243 388.58 538.243zM757.308 685.322c-14.167 0-25.638-11.466-25.638-25.638L731.67 365.526c0-14.177 11.471-25.643 25.638-25.643 14.177 0 25.638 11.466 25.638 25.643l0 294.158C782.945 673.856 771.484 685.322 757.308 685.322zM849.71 391.164 664.964 391.164c-14.167 0-25.638-11.466-25.638-25.637 0-14.177 11.471-25.643 25.638-25.643L849.71 339.884c14.118 0 25.638 11.466 25.638 25.643C875.348 379.698 863.828 391.164 849.71 391.164zM539.365 685.322c-56.735 0-102.912-46.172-102.912-102.913L436.453 442.845c0-56.765 46.177-102.961 102.912-102.961 56.745 0 102.912 46.196 102.912 102.961l0 139.564C642.277 639.15 596.11 685.322 539.365 685.322zM539.365 391.164c-28.49 0-51.627 23.187-51.627 51.682l0 139.564c0 28.471 23.137 51.633 51.627 51.633 28.5 0 51.638-23.162 51.638-51.633L591.003 442.845C591.003 414.35 567.865 391.164 539.365 391.164z" p-id="2976" fill="#d43c33"></path></svg>