<?xml version="1.0" standalone="no"?><!DOCTYPE svg PUBLIC "-//W3C//DTD SVG 1.1//EN" "http://www.w3.org/Graphics/SVG/1.1/DTD/svg11.dtd"><svg t="1508728851603" class="icon" style="" viewBox="0 0 1024 1024" version="1.1" xmlns="http://www.w3.org/2000/svg" p-id="7133" xmlns:xlink="http://www.w3.org/1999/xlink" width="64" height="64"><defs><style type="text/css"></style></defs><path d="M596.204797 71.818699l0 35.886325 0 14.523785c0.041956 0.010233 0.083911 0.022513 0.12689 0.032746l0 266.572288c-21.534456-16.142655-48.821939-25.856901-78.562287-25.856901-69.508074 0-125.84415 52.736085-125.84415 117.780497 0 65.059761 56.336076 117.795846 125.84415 117.795846 66.176189 0 120.311133-47.832402 125.340683-108.568694 0.078795-0.487094 0.3776-0.77055 0.3776-1.336438l0-5.517667c0.01535-0.801249 0.125867-1.571798 0.125867-2.373047 0-0.785899-0.110517-1.556449-0.125867-2.357697L643.487683 137.663336c125.763308 51.293223 214.402091 173.704181 214.402091 316.937372 0 287.73119-345.889775 442.559465-345.889775 442.559465s-345.889775-153.052838-345.889775-442.559465c0-181.094498 141.704372-328.662415 321.038784-341.379041 1.465374-0.178055 2.837628-0.404206 4.13518-0.668219L491.284189 63.791885C283.968493 74.652234 119.032 245.379617 119.032 455.276091c0 336.993151 392.966976 504.932024 392.966976 504.932024s392.966976-167.435407 392.966976-504.932024C904.966976 267.296789 772.72614 110.376876 596.204797 71.818699zM596.331687 482.84703c-1.257643 38.071084-35.83823 68.64338-78.562287 68.64338-43.508933 0-78.782298-31.673373-78.782298-70.733994 0-39.060621 35.272341-70.733994 78.782298-70.733994 42.723034 0 77.304643 30.573319 78.562287 68.64338L596.331687 482.84703z" p-id="7134" fill="#d43c33"></path></svg>