<?xml version="1.0" standalone="no"?><!DOCTYPE svg PUBLIC "-//W3C//DTD SVG 1.1//EN" "http://www.w3.org/Graphics/SVG/1.1/DTD/svg11.dtd"><svg t="1505207766612" class="icon" style="" viewBox="0 0 1024 1024" version="1.1" xmlns="http://www.w3.org/2000/svg" p-id="27194" xmlns:xlink="http://www.w3.org/1999/xlink" width="128" height="128"><defs><style type="text/css"></style></defs><path d="M512 992c-265.080 0-480-214.92-480-480s214.92-480 480-480 480 214.92 480 480-214.92 480-480 480zM513.26 62.33c-249.030 0-450.9 201.87-450.9 450.9s201.87 450.9 450.9 450.9c249.030 0 450.9-201.87 450.9-450.9 0-249-201.87-450.9-450.9-450.9zM644.15 440.51h135.75v310.32h-135.75v-310.32zM673.25 721.73h77.58v-252.12h-77.58v252.12zM440.51 265.97h135.75v484.86h-135.75v-484.86zM469.61 721.73h77.58v-426.66h-77.58v426.66zM236.9 556.88h135.75v193.95h-135.75v-193.95zM265.97 721.73h77.58v-135.75h-77.58v135.75z" p-id="27195" fill="#d43c33"></path></svg>