<?xml version="1.0" standalone="no"?><!DOCTYPE svg PUBLIC "-//W3C//DTD SVG 1.1//EN" "http://www.w3.org/Graphics/SVG/1.1/DTD/svg11.dtd"><svg t="1504057660814" class="icon" style="" viewBox="0 0 1024 1024" version="1.1" xmlns="http://www.w3.org/2000/svg" p-id="5476" xmlns:xlink="http://www.w3.org/1999/xlink" width="32" height="32"><defs><style type="text/css"></style></defs><path d="M512 1002.666667c270.997333 0 490.666667-219.669333 490.666667-490.666667S782.997333 21.333333 512 21.333333 21.333333 241.002667 21.333333 512s219.669333 490.666667 490.666667 490.666667z m0 21.333333C229.226667 1024 0 794.773333 0 512S229.226667 0 512 0s512 229.226667 512 512-229.226667 512-512 512z" fill="#d43c33" p-id="5477"></path><path d="M576 426.666667v-134.4h0.042667a21.333333 21.333333 0 0 1 30.528-18.24C701.141333 311.658667 768 404.010667 768 512c0 141.376-114.624 256-256 256s-256-114.624-256-256 114.624-256 256-256l3.84 0.021333-3.52-0.021333A21.333333 21.333333 0 0 1 512 298.666667c-117.824 0-213.333333 95.509333-213.333333 213.333333s95.509333 213.333333 213.333333 213.333333 213.333333-95.509333 213.333333-213.333333a213.248 213.248 0 0 0-106.666666-184.789333V512a106.666667 106.666667 0 1 1-42.666667-85.333333z m-64 149.333333a64 64 0 1 0 0-128 64 64 0 0 0 0 128z" fill="#d43c33" p-id="5478"></path></svg>