<?xml version="1.0" standalone="no"?><!DOCTYPE svg PUBLIC "-//W3C//DTD SVG 1.1//EN" "http://www.w3.org/Graphics/SVG/1.1/DTD/svg11.dtd"><svg t="1504057783454" class="icon" style="" viewBox="0 0 1024 1024" version="1.1" xmlns="http://www.w3.org/2000/svg" p-id="9730" xmlns:xlink="http://www.w3.org/1999/xlink" width="32" height="32"><defs><style type="text/css"></style></defs><path d="M512.01173 0C229.244628 0 0.01173 229.232898 0.01173 512S229.221168 1024 512.01173 1024s512-229.232898 512-512S794.767102 0 512.01173 0z m310.601603 822.613333a437.680825 437.680825 0 1 1 94.165774-139.653425 437.903688 437.903688 0 0 1-94.165774 139.653425z" p-id="9731" fill="#d43c33"></path><path d="M512.01173 382.387171a129.612829 129.612829 0 1 0 91.632165 37.980664A128.768293 128.768293 0 0 0 512.01173 382.387171z m0 186.501718a56.888889 56.888889 0 1 1 56.888889-56.888889 56.888889 56.888889 0 0 1-56.888889 56.888889zM512.01173 180.988774a36.36197 36.36197 0 0 0-40.103735-32.186208 365.508179 365.508179 0 0 0-322.976403 322.565865 36.36197 36.36197 0 0 0 32.13929 40.138923 36.749049 36.749049 0 0 0 4.046735 0.222864 36.36197 36.36197 0 0 0 35.998351-32.350424c14.931867-134.89118 123.701077-243.519633 258.603986-258.287285a36.36197 36.36197 0 0 0 32.291776-40.103735z" p-id="9732" fill="#d43c33"></path></svg>