<?xml version="1.0" standalone="no"?><!DOCTYPE svg PUBLIC "-//W3C//DTD SVG 1.1//EN" "http://www.w3.org/Graphics/SVG/1.1/DTD/svg11.dtd"><svg t="1508728596179" class="icon" style="" viewBox="0 0 1024 1024" version="1.1" xmlns="http://www.w3.org/2000/svg" p-id="5551" xmlns:xlink="http://www.w3.org/1999/xlink" width="64" height="64"><defs><style type="text/css"></style></defs><path d="M915.968 868.864l-175.104-175.104c53.248-63.488 85.504-145.408 85.504-234.496 0-200.704-163.328-364.544-364.544-364.544-151.04 0-364.544 113.152-364.544 364.544 0 200.704 163.328 364.544 364.544 364.544 86.528 0 165.888-30.208 228.352-80.896l175.616 175.616c6.656 6.656 15.872 10.24 25.088 10.24 9.216 0 17.92-3.584 25.088-10.24C929.792 905.216 929.792 882.688 915.968 868.864zM462.336 781.312c-177.664 0-322.048-144.384-322.048-322.048 0-222.208 188.416-322.048 322.048-322.048 177.664 0 322.048 144.384 322.048 322.048S639.488 781.312 462.336 781.312z" p-id="5552" fill="#d43c33"></path><path d="M632.32 313.856c-14.848-14.848-40.96-33.28-81.408-33.28l-1.024 0c-0.512 0-1.024 0-1.024 0-36.864 2.56-65.024 17.92-84.992 46.08-22.016-30.72-52.736-46.08-91.136-46.08l-2.56 0c-50.688 3.072-89.088 33.792-102.4 81.408-13.824 49.152 3.072 103.424 26.112 135.68 18.944 26.112 43.52 47.616 67.584 68.096 3.584 3.072 7.168 6.144 10.752 9.216 14.848 12.8 26.624 21.504 39.424 30.72 11.776 8.704 24.064 17.408 40.448 31.232 3.584 3.072 7.68 4.608 12.288 4.608 5.12 0 9.728-2.048 13.312-5.12 12.8-11.776 29.184-24.576 47.104-37.888 28.16-21.504 59.904-46.08 88.576-75.776 20.992-23.04 42.496-49.152 49.152-94.208C669.184 380.416 658.944 340.48 632.32 313.856zM371.712 319.488c39.936 0 58.368 22.016 73.728 55.296 3.072 6.656 10.24 11.264 17.408 11.264 7.68 0 14.336-4.608 17.408-11.264 14.336-29.696 28.16-52.736 70.144-55.808 27.136 0 44.032 11.776 53.76 21.504 22.016 22.528 22.528 57.344 18.432 82.432-5.12 34.304-21.504 54.272-38.912 73.216-26.624 27.648-56.832 51.2-83.968 71.68-13.312 10.24-25.6 19.456-36.864 29.184-11.264-9.216-20.992-16.384-30.208-22.528-12.288-9.216-23.04-16.896-36.352-28.672-3.584-3.072-7.168-6.144-11.264-9.728-22.528-18.944-45.568-38.912-61.44-61.44-16.896-24.064-30.72-66.048-20.48-102.912 5.12-18.432 20.992-50.176 67.072-53.248L371.712 319.488 371.712 319.488z" p-id="5553" fill="#d43c33"></path></svg>