<?xml version="1.0" standalone="no"?><!DOCTYPE svg PUBLIC "-//W3C//DTD SVG 1.1//EN" "http://www.w3.org/Graphics/SVG/1.1/DTD/svg11.dtd"><svg t="1504058002077" class="icon" style="" viewBox="0 0 1024 1024" version="1.1" xmlns="http://www.w3.org/2000/svg" p-id="14321" xmlns:xlink="http://www.w3.org/1999/xlink" width="32" height="32"><defs><style type="text/css"></style></defs><path d="M512 1006.08C240.64 1006.08 20.48 783.36 20.48 512S240.64 20.48 512 20.48 1006.08 240.64 1006.08 512 783.36 1006.08 512 1006.08z m0-947.2c-250.88 0-455.68 204.8-455.68 455.68s204.8 455.68 455.68 455.68 455.68-204.8 455.68-455.68c0-253.44-204.8-455.68-455.68-455.68z" p-id="14322" fill="#d43c33"></path><path d="M412.16 762.88c-38.4-79.36-17.92-125.44 10.24-166.4 30.72-46.08 40.96-92.16 40.96-92.16s25.6 33.28 15.36 84.48c43.52-48.64 53.76-128 46.08-158.72 99.84 69.12 143.36 222.72 84.48 335.36 307.2-174.08 76.8-435.2 35.84-463.36 12.8 28.16 15.36 79.36-10.24 102.4C588.8 230.4 476.16 194.56 476.16 194.56c12.8 89.6-48.64 186.88-107.52 261.12-2.56-35.84-5.12-61.44-23.04-94.72-5.12 64-53.76 117.76-66.56 181.76-17.92 89.6 12.8 153.6 133.12 220.16z" p-id="14323" fill="#d43c33"></path></svg>