<?xml version="1.0" standalone="no"?><!DOCTYPE svg PUBLIC "-//W3C//DTD SVG 1.1//EN" "http://www.w3.org/Graphics/SVG/1.1/DTD/svg11.dtd"><svg t="1505207100806" class="icon" style="" viewBox="0 0 1024 1024" version="1.1" xmlns="http://www.w3.org/2000/svg" p-id="9835" xmlns:xlink="http://www.w3.org/1999/xlink" width="128" height="128"><defs><style type="text/css"></style></defs><path d="M512.591983 1019.172041c-279.901875 0-507.624343-227.721445-507.624343-507.624343 0-279.901875 227.722468-507.624343 507.624343-507.624343 279.909038 0 507.624343 227.722468 507.624343 507.624343C1020.216325 791.450596 792.50102 1019.172041 512.591983 1019.172041zM512.591983 36.674271c-261.847683 0-474.874451 213.026768-474.874451 474.874451 0 261.848707 213.026768 474.874451 474.874451 474.874451 261.839497 0 474.875474-213.025745 474.875474-474.874451C987.467457 249.700015 774.431479 36.674271 512.591983 36.674271z" p-id="9836" fill="#d43c33"></path><path d="M539.264459 680.57537c-1.862417 0-3.693112-0.287549-5.508457-0.86367-9.899464-3.119037-14.112416-13.240559-18.645662-23.907503-7.579629-18.006096-13.888312-29.824259-31.199583-29.824259-0.079818 0-0.079818 0-0.127913 0l-20.61348 0c-62.885236 0-114.016777-52.05047-114.016777-116.047016l0-23.922852c0-63.981197 51.131541-116.03269 114.016777-116.03269l82.35466 0c62.869886 0 114.009613 52.051493 114.009613 116.03269l0 23.922852c0 25.233708-7.868201 49.108464-22.163789 68.793806l0 0-23.059182 23.747867c-0.159636 0.11154-16.438391 13.608949-29.256324 29.776164-5.308913 6.763031-10.217712 14.343683-14.567787 21.011546-7.370875 11.338233-12.68081 19.524682-19.180851 23.52274-4.101411 2.527566-8.107655 3.822049-12.042267 3.822049L539.263435 680.57537 539.264459 680.57537zM483.91178 603.753727c33.286104 0 44.751227 27.16878 51.603285 43.36874 1.327228 3.2623 3.229554 7.691169 4.749164 10.249435 2.647293-2.430352 7.740288-10.361999 11.570523-16.21531 4.613064-7.066953 9.778714-15.112186 15.823384-22.706141 2.366907-2.991124 4.804423-5.853311 7.227612-8.635681l0 0 25.417903-24.769127c23.570835-17.959024 37.068244-45.335535 37.068244-75.15877l0-23.939225c0-51.763944-41.256636-93.852528-91.845825-93.852528l-82.419128 0c-50.643424 0-91.821265 42.088584-91.821265 93.852528l0 23.939225c0 51.762921 41.234123 93.867878 91.821265 93.867878l20.62883 0C483.783867 603.753727 483.863684 603.753727 483.91178 603.753727L483.91178 603.753727zM359.355973 652.27072c-2.831488 0-5.612834-1.087774-7.820106-3.229554-40.841174-40.426735-63.293535-94.219895-63.293535-151.500483 0-57.264215 22.451338-111.011326 63.293535-151.485133 4.332678-4.269233 11.353582-4.269233 15.69547 0.064468 4.29277 4.349051 4.29277 11.353582-0.048095 15.703657-36.628222 36.236296-56.752562 84.46574-56.752562 135.717008s20.12434 99.497085 56.752562 135.733381c4.340865 4.300956 4.38896 11.353582 0.048095 15.719007C365.073184 651.183969 362.194624 652.27072 359.355973 652.27072L359.355973 652.27072zM649.236106 652.27072c-2.845815 0-5.724375-1.087774-7.882528-3.27765-4.301979-4.366448-4.301979-11.369955 0.048095-15.719007 36.619012-36.236296 56.751538-84.482113 56.751538-135.733381s-20.132526-99.481735-56.751538-135.717008c-4.350075-4.301979-4.381797-11.353582-0.048095-15.703657 4.300956-4.333702 11.368932-4.397147 15.687284-0.064468 40.84015 40.473807 63.35698 94.26799 63.35698 151.485133s-22.452361 111.010303-63.35698 151.500483C654.897036 651.183969 652.050198 652.27072 649.236106 652.27072L649.236106 652.27072zM691.837366 694.488241c-2.845815 0-5.725398-1.104147-7.835456-3.310396-4.366448-4.333702-4.318352-11.337209 0.031722-15.687284 48.00534-47.541783 74.390267-110.770849 74.390267-177.949878 0-67.163679-26.384927-130.408095-74.390267-177.934528-4.350075-4.285606-4.39817-11.353582-0.031722-15.703657 4.253884-4.333702 11.320836-4.397147 15.670911-0.064468 52.227502 51.715849 80.947614 120.55775 80.947614 193.70163 0 73.191976-28.783557 142.001131-80.947614 193.70163C697.530019 693.463911 694.699554 694.488241 691.837366 694.488241L691.837366 694.488241zM316.739363 694.488241c-2.854001 0-5.636371-1.104147-7.820106-3.246951-52.242851-51.699476-80.954777-120.509654-80.954777-193.70163s28.760021-141.985782 81.002872-193.70163c4.350075-4.269233 11.369955-4.269233 15.711843 0.064468 4.270257 4.349051 4.270257 11.353582-0.088004 15.703657-48.053436 47.52541-74.438363 110.707404-74.438363 177.934528 0 67.227124 26.384927 130.408095 74.390267 177.949878 4.350075 4.301979 4.406356 11.353582 0.048095 15.687284C322.471924 693.384094 319.586201 694.488241 316.739363 694.488241L316.739363 694.488241 316.739363 694.488241z" p-id="9837" fill="#d43c33"></path></svg>