<?xml version="1.0" standalone="no"?><!DOCTYPE svg PUBLIC "-//W3C//DTD SVG 1.1//EN" "http://www.w3.org/Graphics/SVG/1.1/DTD/svg11.dtd"><svg t="1505206779654" class="icon" style="" viewBox="0 0 1024 1024" version="1.1" xmlns="http://www.w3.org/2000/svg" p-id="7162" xmlns:xlink="http://www.w3.org/1999/xlink" width="128" height="128"><defs><style type="text/css"></style></defs><path d="M393.482211 483.489666H288.859385v-77.800947h-16.095583v174.377516h16.095583v-83.164095H393.482211v83.164095h15.20019V405.687696H393.482211v77.80197z m137.707338-80.485079c-54.847166 2.989077-83.461877 34.287921-85.84311 93.897553 2.382257 54.850236 30.102598 83.452667 83.163072 85.845157 54.245462-1.788739 82.558297-30.994921 84.950787-87.632873-3.579525-57.821917-31.008224-88.533382-82.270749-92.109837z m-3.575431 168.117952c-41.736567-3.578502-63.791885-28.906353-66.173119-76.009138 4.169973-48.287773 26.828019-74.515111 67.960835-78.69634 40.529065 4.180206 62.594617 30.408567 66.172095 78.69634-2.390443 48.288796-25.037233 73.627904-67.959811 76.009138z m106.412588-165.434843v14.306844h60.804854v160.070672h16.096607V419.99454h60.804854v-14.306844h-137.706315z" fill="#d43c33" p-id="7163"></path><path d="M527.070742 114.330932c-211.589023 0-383.104351 171.656545-383.105375 383.434879 0 211.744565 171.516352 383.420553 383.105375 383.420553 211.577766 0 383.106398-171.675988 383.106398-383.420553 0-211.777311-171.528632-383.434879-383.106398-383.434879z m-0.452301 759.690242c-208.005404 0-376.61966-168.767751-376.61966-376.926652 0.001023-208.193693 168.613232-376.943025 376.61966-376.943025 207.995171 0 376.61966 168.751379 376.61966 376.943025 0 208.1589-168.624489 376.926652-376.61966 376.926652z" fill="#d43c33" p-id="7164"></path></svg>